HIERARCHY
ROOT Hips
{
	OFFSET	0.00	0.00	0.00
	CHANNELS 6 Xposition Yposition Zposition Zrotation Xrotation Yrotation
	JOINT LeftUpLeg
	{
		OFFSET	 0.126116	-0.014019	-0.065224
		CHANNELS 3 Zrotation Xrotation Yrotation
		JOINT LeftLeg
		{
			OFFSET	 0.000000	 0.000000	 0.569914
			CHANNELS 3 Zrotation Xrotation Yrotation
			JOINT LeftFoot
			{
				OFFSET	 0.000000	 0.000000	 0.544423
				CHANNELS 3 Zrotation Xrotation Yrotation
				JOINT LeftToeBase
				{
					OFFSET	 0.000000	 0.000000	 0.207117
					CHANNELS 3 Zrotation Xrotation Yrotation
					End Site
					{
						OFFSET	 0.000000	 0.000000	 0.207117
					}
				}
			}
		}
	}
	JOINT RightUpLeg
	{
		OFFSET	-0.124023	-0.008373	-0.065224
		CHANNELS 3 Zrotation Xrotation Yrotation
		JOINT RightLeg
		{
			OFFSET	 0.000000	 0.000000	 0.570047
			CHANNELS 3 Zrotation Xrotation Yrotation
			JOINT RightFoot
			{
				OFFSET	 0.000000	 0.000000	 0.544354
				CHANNELS 3 Zrotation Xrotation Yrotation
				JOINT RightToeBase
				{
					OFFSET	 0.000000	 0.000000	 0.207540
					CHANNELS 3 Zrotation Xrotation Yrotation
					End Site
					{
						OFFSET	 0.000000	 0.000000	 0.207540
					}
				}
			}
		}
	}
	JOINT Spine
	{
		OFFSET	 0.000184	-0.007763	 0.117403
		CHANNELS 3 Zrotation Xrotation Yrotation
		JOINT Spine1
		{
			OFFSET	 0.000000	 0.000000	 0.137269
			CHANNELS 3 Zrotation Xrotation Yrotation
			JOINT Spine2
			{
				OFFSET	 0.000000	 0.000000	 0.156879
				CHANNELS 3 Zrotation Xrotation Yrotation
				JOINT LeftShoulder
				{
					OFFSET	 0.080501	-0.002496	 0.160144
					CHANNELS 3 Zrotation Xrotation Yrotation
					JOINT LeftArm
					{
						OFFSET	 0.000000	 0.000000	 0.164363
						CHANNELS 3 Zrotation Xrotation Yrotation
						JOINT LeftForeArm
						{
							OFFSET	 0.000000	 0.000000	 0.364576
							CHANNELS 3 Zrotation Xrotation Yrotation
							JOINT LeftHand
							{
								OFFSET	 0.000000	 0.000000	 0.360812
								CHANNELS 3 Zrotation Xrotation Yrotation
								JOINT LeftHandIndex1
								{
									OFFSET	 0.000000	 0.000000	 0.086006
									CHANNELS 3 Zrotation Xrotation Yrotation
									JOINT LeftHandIndex2
									{
										OFFSET	 0.000000	 0.000000	 0.047236
										CHANNELS 3 Zrotation Xrotation Yrotation
										JOINT LeftHandIndex3
										{
											OFFSET	-0.004284	-0.000551	 0.038166
											CHANNELS 3 Zrotation Xrotation Yrotation
											End Site
											{
												OFFSET	-0.004284	-0.000551	 0.038166
											}
										}
									}
								}
							}
						}
					}
				}
				JOINT Neck
				{
					OFFSET	 0.000000	 0.000000	 0.176489
					CHANNELS 3 Zrotation Xrotation Yrotation
					JOINT Head
					{
						OFFSET	 0.000000	-0.001747	 0.077940
						CHANNELS 3 Zrotation Xrotation Yrotation
						End Site
						{
							OFFSET	 0.000000	-0.001747	 0.077940
						}
					}
				}
				JOINT RightShoulder
				{
					OFFSET	-0.080363	 0.000306	 0.159706
					CHANNELS 3 Zrotation Xrotation Yrotation
					JOINT RightArm
					{
						OFFSET	 0.000000	 0.000000	 0.164196
						CHANNELS 3 Zrotation Xrotation Yrotation
						JOINT RightForeArm
						{
							OFFSET	 0.000000	 0.000000	 0.365611
							CHANNELS 3 Zrotation Xrotation Yrotation
							JOINT RightHand
							{
								OFFSET	 0.000000	 0.000000	 0.360648
								CHANNELS 3 Zrotation Xrotation Yrotation
								JOINT RightHandIndex1
								{
									OFFSET	 0.000000	 0.000000	 0.069977
									CHANNELS 3 Zrotation Xrotation Yrotation
									JOINT RightHandIndex2
									{
										OFFSET	 0.000000	 0.000000	 0.052305
										CHANNELS 3 Zrotation Xrotation Yrotation
										JOINT RightHandIndex3
										{
											OFFSET	 0.009002	-0.000782	 0.042196
											CHANNELS 3 Zrotation Xrotation Yrotation
											End Site
											{
												OFFSET	 0.009002	-0.000782	 0.042196
											}
										}
									}
								}
							}
						}
					}
				}
			}
		}
	}
}
MOTION
Frames:    11
Frame Time: 0.03333334
 0.000049	 0.043119	 1.276423	-0.091123	 2.408435	 0.521825	-2.998729	-5.477121	 178.843700	 2.294466	-13.050680	 0.612614	-0.033583	 71.176830	-0.166748	-2.385833	 28.452750	 0.000004	 10.577010	-5.002106	-179.088400	-0.797478	-11.460380	 0.865661	 5.256454	 70.083530	 1.080227	 2.384659	 28.388700	-0.000001	-4.290461	 6.683388	 0.980767	-1.997077	-4.072549	-0.145244	 6.341144	 7.106465	-0.391454	-91.187810	 69.914340	-177.869800	-8.212259	 3.652924	-20.598070	 25.851590	-2.042913	-7.537672	-10.809050	-30.328570	-4.930771	-2.027600	 6.559038	 9.033609	-5.188889	 0.308190	 3.541030	-5.234859	 0.342567	 0.430617	 4.332245	 17.456630	-6.582286	 1.339104	-12.834240	 2.114352	 89.039790	 68.856710	 177.417500	 9.225534	 8.067253	 1.744724	-24.039770	-12.287270	 36.024200	 8.713406	-30.398130	 7.348144	 1.803333	 3.979147	-15.098590	 4.898592	 3.004813	-9.310344	 5.224449	 0.395017	 2.014677
-0.000042	 0.043907	 1.276738	-0.082590	 2.570808	 0.525735	-3.004798	-5.622298	 178.818800	 2.257538	-12.900560	 0.597426	-0.043222	 71.000650	-0.118849	-2.385833	 28.452750	 0.000004	 10.553700	-5.121348	-179.048100	-0.794002	-11.264760	 0.851766	 5.240381	 69.904110	 1.088706	 2.384659	 28.388700	-0.000001	-4.401294	 6.837331	 1.012368	-2.026937	-4.501829	-0.168949	 6.397710	 7.704044	-0.440946	-91.145640	 69.623790	-177.771500	-7.976426	 3.593044	-20.684710	 25.626340	-2.249541	-8.449169	-10.661920	-31.285300	-5.159048	-2.027600	 6.559038	 9.033609	-5.188889	 0.308190	 3.541030	-5.234859	 0.342567	 0.430617	 4.419347	 18.215850	-6.821679	 1.416168	-13.348240	 2.120142	 88.982250	 68.457390	 177.299500	 8.975144	 8.043679	 2.101135	-23.966590	-12.318350	 36.267400	 8.502874	-31.204260	 7.358411	 1.803333	 3.979147	-15.098590	 4.898592	 3.004813	-9.310344	 5.224449	 0.395017	 2.014677
-0.000271	 0.046201	 1.277430	-0.061655	 2.996740	 0.541952	-3.020943	-6.053566	 178.744100	 2.162987	-12.583610	 0.562346	-0.063998	 70.562310	 0.001079	-2.385833	 28.452750	 0.000004	 10.494580	-5.478858	-178.948800	-0.783718	-10.814640	 0.820087	 5.220646	 69.450100	 1.086652	 2.384659	 28.388700	-0.000001	-4.698784	 7.241892	 1.090274	-2.112439	-5.525794	-0.217543	 6.558259	 9.222353	-0.577725	-91.031060	 68.861760	-177.517300	-7.269866	 3.702880	-21.403130	 25.063750	-2.571553	-10.113610	-10.349990	-33.760030	-5.829854	-2.027600	 6.559038	 9.033609	-5.188889	 0.308190	 3.541030	-5.234859	 0.342567	 0.430617	 4.665361	 20.205860	-7.458707	 1.631571	-14.691640	 2.136969	 88.825630	 67.410060	 176.994800	 8.286484	 8.237682	 3.124107	-23.807800	-12.376730	 36.801800	 7.977658	-33.308690	 7.423213	 1.803333	 3.979147	-15.098590	 4.898592	 3.004813	-9.310344	 5.224449	 0.395017	 2.014677
-0.000641	 0.049137	 1.277792	-0.013673	 3.562207	 0.576622	-3.087943	-6.830917	 178.625800	 2.157805	-12.596660	 0.561789	-0.229505	 70.335740	 0.183514	-2.385833	 28.452750	 0.000004	 10.398540	-6.145042	-178.857000	-0.782783	-10.623850	 0.805961	 5.239413	 69.077560	 1.053457	 2.384659	 28.388700	-0.000001	-4.904121	 7.612297	 1.162392	-2.165528	-6.547605	-0.291566	 6.579670	 10.554520	-0.679923	-90.951680	 68.307240	-177.358400	-6.546034	 4.449672	-22.524200	 24.452990	-2.638320	-10.948810	-10.474180	-36.499520	-6.810084	-2.027600	 6.559038	 9.033609	-5.188889	 0.308190	 3.541030	-5.234859	 0.342567	 0.430617	 4.707169	 21.866770	-7.945744	 1.894122	-15.942180	 2.197799	 88.679680	 66.380260	 176.745200	 7.431318	 8.792724	 4.149927	-23.527330	-12.267170	 37.200940	 7.615747	-35.610010	 7.682724	 1.803333	 3.979147	-15.098590	 4.898592	 3.004813	-9.310344	 5.224449	 0.395017	 2.014677
-0.001039	 0.052469	 1.277966	 0.038330	 4.156808	 0.612595	-3.201548	-7.733875	 178.490900	 2.125897	-12.757890	 0.570933	-0.400192	 70.164680	 0.362737	-2.385833	 28.452750	 0.000004	 10.302120	-6.943124	-178.767100	-0.781831	-10.593400	 0.803855	 5.309940	 68.755050	 0.968207	 2.384659	 28.388700	-0.000001	-5.104931	 7.991167	 1.232719	-2.216530	-7.405078	-0.341781	 6.593396	 11.810120	-0.783744	-90.872900	 67.764090	-177.208100	-5.730368	 5.492390	-24.356610	 23.871970	-2.442850	-10.766820	-10.799330	-39.260850	-7.988718	-2.027600	 6.559038	 9.033609	-5.188889	 0.308190	 3.541030	-5.234859	 0.342567	 0.430617	 4.739518	 23.527910	-8.423890	 2.177906	-17.205510	 2.274324	 88.527600	 65.330640	 176.499800	 6.503290	 9.587152	 5.413744	-23.281220	-12.078650	 37.376020	 7.326128	-37.945380	 8.052259	 1.803333	 3.979147	-15.098590	 4.898592	 3.004813	-9.310344	 5.224449	 0.395017	 2.014677
-0.001480	 0.056419	 1.278146	 0.099136	 4.874048	 0.658710	-3.217731	-8.824364	 178.344800	 2.202083	-12.957440	 0.579636	-0.585652	 69.982430	 0.568680	-2.385833	 28.452760	 0.000004	 10.167910	-7.895023	-178.663400	-0.875920	-10.538070	 0.782400	 5.478389	 68.393830	 0.874889	 2.384659	 28.388700	-0.000001	-5.293509	 8.379603	 1.288683	-2.264555	-8.267889	-0.372975	 6.566282	 13.043830	-0.908095	-90.824870	 67.089200	-177.178900	-4.747622	 6.589235	-26.768540	 22.994890	-1.966148	-9.572198	-11.684170	-42.067210	-9.569458	-2.027600	 6.559038	 9.033609	-5.188889	 0.308190	 3.541030	-5.234859	 0.342567	 0.430617	 4.676749	 24.910680	-8.741921	 2.433106	-18.290990	 2.298517	 88.420400	 64.178470	 176.405100	 5.312556	 10.363010	 6.778239	-22.908060	-11.720340	 37.416810	 7.219260	-40.313390	 8.717004	 1.803333	 3.979147	-15.098590	 4.898592	 3.004813	-9.310344	 5.224449	 0.395017	 2.014677
-0.001953	 0.060824	 1.278469	 0.168429	 5.725775	 0.720432	-3.371179	-10.061770	 178.149800	 2.152810	-13.119830	 0.583585	-0.784561	 69.766090	 0.802317	-2.385832	 28.452790	-0.000001	 9.986249	-8.948272	-178.548300	-1.109159	-10.339560	 0.725749	 5.767606	 67.955120	 0.793086	 2.384659	 28.388700	-0.000001	-5.443141	 8.749109	 1.315536	-2.297437	-9.119201	-0.388515	 6.471848	 14.175230	-1.044360	-90.831820	 66.267500	-177.326000	-3.707912	 7.425221	-29.170250	 21.678260	-1.416524	-8.093440	-13.307740	-44.726730	-11.585800	-2.027600	 6.559038	 9.033609	-5.188889	 0.308190	 3.541030	-5.234859	 0.342567	 0.430617	 4.458688	 25.779750	-8.795083	 2.612941	-19.038230	 2.234476	 88.397900	 62.956740	 176.531700	 3.878212	 10.814580	 7.986355	-22.298310	-11.219500	 37.577160	 7.398429	-42.544860	 9.756381	 1.803333	 3.979147	-15.098590	 4.898592	 3.004813	-9.310344	 5.224449	 0.395017	 2.014677
-0.002384	 0.064910	 1.278765	 0.230192	 6.495989	 0.768115	-3.479357	-11.205000	 177.984000	 2.147364	-13.297860	 0.590109	-0.952450	 69.571170	 0.991580	-2.385832	 28.452790	-0.000001	 9.818237	-9.935341	-178.443300	-1.330104	-10.208290	 0.678917	 6.061850	 67.565700	 0.681842	 2.384659	 28.388700	-0.000001	-5.563817	 9.089104	 1.338867	-2.301777	-9.553163	-0.367487	 6.386663	 15.035170	-1.160156	-90.842100	 65.535550	-177.453300	-2.983938	 7.887454	-30.617730	 20.457570	-1.265541	-8.326588	-14.980490	-46.927050	-13.571230	-2.027600	 6.559038	 9.033609	-5.188889	 0.308190	 3.541030	-5.234859	 0.342567	 0.430617	 4.263923	 26.554580	-8.835621	 2.773314	-19.702410	 2.182267	 88.383400	 61.868460	 176.639300	 2.688752	 10.994770	 9.034843	-21.688660	-10.859820	 38.073140	 7.670750	-44.414890	 10.799730	 1.803333	 3.979147	-15.098590	 4.898592	 3.004813	-9.310344	 5.224449	 0.395017	 2.014677
-0.002577	 0.070213	 1.278625	 0.386514	 7.523071	 0.772253	-3.707112	-12.868550	 177.832700	 2.091557	-13.800050	 0.598630	-1.074871	 69.324060	 1.194002	-2.385832	 28.452790	-0.000001	 9.619670	-11.515240	-178.257700	-1.410514	-10.608310	 0.688677	 6.391467	 67.359390	 0.406323	 2.384659	 28.388700	-0.000001	-5.716458	 9.342234	 1.335323	-2.301783	-10.397790	-0.376438	 6.249111	 15.850360	-1.205332	-91.148220	 65.212430	-178.314500	-2.191570	 8.834436	-30.166150	 19.535150	-1.457723	-10.469960	-16.918350	-48.802830	-15.776310	-2.027600	 6.559038	 9.033609	-5.188889	 0.308190	 3.541030	-5.234859	 0.342567	 0.430617	 4.010583	 26.747410	-8.794940	 2.877209	-20.040450	 2.151688	 88.666730	 61.443790	 177.360800	 1.121855	 12.003380	 9.101244	-21.143160	-10.604530	 38.740690	 8.070875	-46.309760	 11.953530	 1.803333	 3.979147	-15.098590	 4.898592	 3.004813	-9.310344	 5.224449	 0.395017	 2.014677
-0.002790	 0.076501	 1.278468	 0.559629	 8.660608	 0.767742	-3.962392	-14.695330	 177.661300	 2.040103	-14.261010	 0.605518	-1.203782	 68.961420	 1.400230	-2.385833	 28.452760	 0.000004	 9.398046	-13.252940	-178.044500	-1.521341	-10.951940	 0.689573	 6.780307	 67.035820	 0.081414	 2.384659	 28.388700	-0.000001	-5.876859	 9.634238	 1.329692	-2.267347	-10.874920	-0.327507	 6.091352	 16.523730	-1.250111	-91.498330	 64.877310	-179.266000	-1.252217	 10.015700	-30.381950	 18.563830	-1.476655	-11.968000	-19.213490	-50.605020	-18.343270	-2.027600	 6.559038	 9.033609	-5.188889	 0.308190	 3.541030	-5.234859	 0.342567	 0.430617	 3.733209	 26.937570	-8.746447	 2.987980	-20.396360	 2.119691	 88.991550	 61.006470	 178.157400	-0.645626	 13.219620	 9.574771	-20.586120	-10.282230	 39.313190	 8.613501	-48.184460	 13.322000	 1.803333	 3.979147	-15.098590	 4.898592	 3.004813	-9.310344	 5.224449	 0.395017	 2.014677
-0.003029	 0.083130	 1.278127	 0.698022	 9.859297	 0.732046	-4.184638	-16.617520	 177.509900	 2.023405	-14.756970	 0.621851	-1.382157	 68.670540	 1.625171	-2.385833	 28.452760	 0.000004	 9.251022	-15.155410	-177.788900	-1.623285	-11.471450	 0.701500	 7.169806	 66.831690	-0.253931	 2.384659	 28.388700	-0.000001	-6.026990	 9.920878	 1.356385	-2.207791	-11.196070	-0.299841	 5.933665	 16.981280	-1.193249	-91.905010	 64.845060	 179.660100	-0.273088	 11.575350	-31.309960	 18.111860	-1.340610	-11.873800	-21.129920	-52.116060	-20.562560	-2.027600	 6.559038	 9.033609	-5.188889	 0.308190	 3.541030	-5.234859	 0.342567	 0.430617	 3.484145	 26.535040	-8.807176	 3.046798	-20.410330	 2.046347	 89.380860	 60.681470	 179.075000	-2.363893	 14.643800	 10.174380	-19.950270	-9.803717	 39.667900	 9.515669	-49.901500	 14.746290	 1.803333	 3.979147	-15.098590	 4.898592	 3.004813	-9.310344	 5.224449	 0.395017	 2.014677
